<mxfile host="app.diagrams.net" agent="Mozilla/5.0 (Macintosh; Intel Mac OS X 10_15_7) AppleWebKit/605.1.15 (KHTML, like Gecko) Version/18.6 Safari/605.1.15" version="28.2.1">
  <diagram name="Страница — 1" id="9HUj3mD_U9LbTRBygrI0">
    <mxGraphModel dx="1861" dy="970" grid="1" gridSize="10" guides="1" tooltips="1" connect="1" arrows="1" fold="1" page="1" pageScale="1" pageWidth="827" pageHeight="1169" math="0" shadow="0">
      <root>
        <mxCell id="0" />
        <mxCell id="1" parent="0" />
        <mxCell id="FSX5XVb1Eke8zx7frmXY-43" value="" style="shape=table;startSize=0;container=1;collapsible=0;childLayout=tableLayout;fillColor=#fff2cc;gradientColor=none;strokeColor=#d6b656;" vertex="1" parent="1">
          <mxGeometry x="353.5" y="320" width="166.5" height="160" as="geometry" />
        </mxCell>
        <mxCell id="FSX5XVb1Eke8zx7frmXY-44" value="" style="shape=tableRow;horizontal=0;startSize=0;swimlaneHead=0;swimlaneBody=0;strokeColor=inherit;top=0;left=0;bottom=0;right=0;collapsible=0;dropTarget=0;fillColor=none;points=[[0,0.5],[1,0.5]];portConstraint=eastwest;" vertex="1" parent="FSX5XVb1Eke8zx7frmXY-43">
          <mxGeometry width="166.5" height="80" as="geometry" />
        </mxCell>
        <mxCell id="FSX5XVb1Eke8zx7frmXY-45" value="&lt;span style=&quot;white-space: nowrap;&quot;&gt;Phone&lt;/span&gt;" style="shape=partialRectangle;html=1;whiteSpace=wrap;connectable=0;strokeColor=inherit;overflow=hidden;fillColor=none;top=0;left=0;bottom=0;right=0;pointerEvents=1;" vertex="1" parent="FSX5XVb1Eke8zx7frmXY-44">
          <mxGeometry width="167" height="80" as="geometry">
            <mxRectangle width="167" height="80" as="alternateBounds" />
          </mxGeometry>
        </mxCell>
        <mxCell id="FSX5XVb1Eke8zx7frmXY-46" value="" style="shape=tableRow;horizontal=0;startSize=0;swimlaneHead=0;swimlaneBody=0;strokeColor=inherit;top=0;left=0;bottom=0;right=0;collapsible=0;dropTarget=0;fillColor=none;points=[[0,0.5],[1,0.5]];portConstraint=eastwest;" vertex="1" parent="FSX5XVb1Eke8zx7frmXY-43">
          <mxGeometry y="80" width="166.5" height="80" as="geometry" />
        </mxCell>
        <mxCell id="FSX5XVb1Eke8zx7frmXY-47" value="+ Validate" style="shape=partialRectangle;html=1;whiteSpace=wrap;connectable=0;strokeColor=inherit;overflow=hidden;fillColor=none;top=0;left=0;bottom=0;right=0;pointerEvents=1;" vertex="1" parent="FSX5XVb1Eke8zx7frmXY-46">
          <mxGeometry width="167" height="80" as="geometry">
            <mxRectangle width="167" height="80" as="alternateBounds" />
          </mxGeometry>
        </mxCell>
        <mxCell id="FSX5XVb1Eke8zx7frmXY-48" value="" style="shape=table;startSize=0;container=1;collapsible=0;childLayout=tableLayout;fillColor=#fff2cc;gradientColor=none;strokeColor=#d6b656;" vertex="1" parent="1">
          <mxGeometry x="626" y="320" width="170" height="160" as="geometry" />
        </mxCell>
        <mxCell id="FSX5XVb1Eke8zx7frmXY-49" value="" style="shape=tableRow;horizontal=0;startSize=0;swimlaneHead=0;swimlaneBody=0;strokeColor=inherit;top=0;left=0;bottom=0;right=0;collapsible=0;dropTarget=0;fillColor=none;points=[[0,0.5],[1,0.5]];portConstraint=eastwest;" vertex="1" parent="FSX5XVb1Eke8zx7frmXY-48">
          <mxGeometry width="170" height="80" as="geometry" />
        </mxCell>
        <mxCell id="FSX5XVb1Eke8zx7frmXY-50" value="&lt;span style=&quot;white-space: nowrap;&quot;&gt;Birthday&lt;/span&gt;" style="shape=partialRectangle;html=1;whiteSpace=wrap;connectable=0;strokeColor=inherit;overflow=hidden;fillColor=none;top=0;left=0;bottom=0;right=0;pointerEvents=1;" vertex="1" parent="FSX5XVb1Eke8zx7frmXY-49">
          <mxGeometry width="170" height="80" as="geometry">
            <mxRectangle width="170" height="80" as="alternateBounds" />
          </mxGeometry>
        </mxCell>
        <mxCell id="FSX5XVb1Eke8zx7frmXY-51" value="" style="shape=tableRow;horizontal=0;startSize=0;swimlaneHead=0;swimlaneBody=0;strokeColor=inherit;top=0;left=0;bottom=0;right=0;collapsible=0;dropTarget=0;fillColor=none;points=[[0,0.5],[1,0.5]];portConstraint=eastwest;" vertex="1" parent="FSX5XVb1Eke8zx7frmXY-48">
          <mxGeometry y="80" width="170" height="80" as="geometry" />
        </mxCell>
        <mxCell id="FSX5XVb1Eke8zx7frmXY-52" value="+ Validate" style="shape=partialRectangle;html=1;whiteSpace=wrap;connectable=0;strokeColor=inherit;overflow=hidden;fillColor=none;top=0;left=0;bottom=0;right=0;pointerEvents=1;" vertex="1" parent="FSX5XVb1Eke8zx7frmXY-51">
          <mxGeometry width="170" height="80" as="geometry">
            <mxRectangle width="170" height="80" as="alternateBounds" />
          </mxGeometry>
        </mxCell>
        <mxCell id="FSX5XVb1Eke8zx7frmXY-53" value="" style="shape=table;startSize=0;container=1;collapsible=0;childLayout=tableLayout;fillColor=#fff2cc;gradientColor=none;strokeColor=#d6b656;" vertex="1" parent="1">
          <mxGeometry x="80" y="320" width="160" height="160" as="geometry" />
        </mxCell>
        <mxCell id="FSX5XVb1Eke8zx7frmXY-54" value="" style="shape=tableRow;horizontal=0;startSize=0;swimlaneHead=0;swimlaneBody=0;strokeColor=inherit;top=0;left=0;bottom=0;right=0;collapsible=0;dropTarget=0;fillColor=none;points=[[0,0.5],[1,0.5]];portConstraint=eastwest;" vertex="1" parent="FSX5XVb1Eke8zx7frmXY-53">
          <mxGeometry width="160" height="160" as="geometry" />
        </mxCell>
        <mxCell id="FSX5XVb1Eke8zx7frmXY-55" value="Name" style="shape=partialRectangle;html=1;whiteSpace=wrap;connectable=0;strokeColor=inherit;overflow=hidden;fillColor=none;top=0;left=0;bottom=0;right=0;pointerEvents=1;" vertex="1" parent="FSX5XVb1Eke8zx7frmXY-54">
          <mxGeometry width="160" height="160" as="geometry">
            <mxRectangle width="160" height="160" as="alternateBounds" />
          </mxGeometry>
        </mxCell>
        <mxCell id="FSX5XVb1Eke8zx7frmXY-56" value="" style="shape=table;startSize=0;container=1;collapsible=0;childLayout=tableLayout;fillColor=#d5e8d4;strokeColor=#82b366;gradientColor=#97d077;" vertex="1" parent="1">
          <mxGeometry x="290" y="10" width="210" height="150" as="geometry" />
        </mxCell>
        <mxCell id="FSX5XVb1Eke8zx7frmXY-57" value="" style="shape=tableRow;horizontal=0;startSize=0;swimlaneHead=0;swimlaneBody=0;strokeColor=inherit;top=0;left=0;bottom=0;right=0;collapsible=0;dropTarget=0;fillColor=none;points=[[0,0.5],[1,0.5]];portConstraint=eastwest;" vertex="1" parent="FSX5XVb1Eke8zx7frmXY-56">
          <mxGeometry width="210" height="75" as="geometry" />
        </mxCell>
        <mxCell id="FSX5XVb1Eke8zx7frmXY-58" value="&lt;span style=&quot;font-family: Verdana;&quot;&gt;Class Field&lt;/span&gt;" style="shape=partialRectangle;html=1;whiteSpace=wrap;connectable=0;strokeColor=inherit;overflow=hidden;fillColor=none;top=0;left=0;bottom=0;right=0;pointerEvents=1;" vertex="1" parent="FSX5XVb1Eke8zx7frmXY-57">
          <mxGeometry width="210" height="75" as="geometry">
            <mxRectangle width="210" height="75" as="alternateBounds" />
          </mxGeometry>
        </mxCell>
        <mxCell id="FSX5XVb1Eke8zx7frmXY-59" value="" style="shape=tableRow;horizontal=0;startSize=0;swimlaneHead=0;swimlaneBody=0;strokeColor=inherit;top=0;left=0;bottom=0;right=0;collapsible=0;dropTarget=0;fillColor=none;points=[[0,0.5],[1,0.5]];portConstraint=eastwest;" vertex="1" parent="FSX5XVb1Eke8zx7frmXY-56">
          <mxGeometry y="75" width="210" height="75" as="geometry" />
        </mxCell>
        <mxCell id="FSX5XVb1Eke8zx7frmXY-60" value="&lt;span style=&quot;text-align: left; white-space: nowrap;&quot;&gt;Value : str&lt;/span&gt;" style="shape=partialRectangle;html=1;whiteSpace=wrap;connectable=0;strokeColor=inherit;overflow=hidden;fillColor=none;top=0;left=0;bottom=0;right=0;pointerEvents=1;" vertex="1" parent="FSX5XVb1Eke8zx7frmXY-59">
          <mxGeometry width="210" height="75" as="geometry">
            <mxRectangle width="210" height="75" as="alternateBounds" />
          </mxGeometry>
        </mxCell>
        <mxCell id="FSX5XVb1Eke8zx7frmXY-61" value="" style="endArrow=classic;html=1;rounded=0;exitX=0;exitY=1;exitDx=0;exitDy=0;" edge="1" parent="1">
          <mxGeometry width="50" height="50" relative="1" as="geometry">
            <mxPoint x="135" y="320" as="sourcePoint" />
            <mxPoint x="135" y="160" as="targetPoint" />
          </mxGeometry>
        </mxCell>
        <mxCell id="FSX5XVb1Eke8zx7frmXY-62" value="" style="endArrow=classic;html=1;rounded=0;exitX=0;exitY=1;exitDx=0;exitDy=0;" edge="1" parent="1">
          <mxGeometry width="50" height="50" relative="1" as="geometry">
            <mxPoint x="730" y="320" as="sourcePoint" />
            <mxPoint x="730" y="160" as="targetPoint" />
          </mxGeometry>
        </mxCell>
        <mxCell id="FSX5XVb1Eke8zx7frmXY-63" value="" style="endArrow=classic;html=1;rounded=0;exitX=0;exitY=1;exitDx=0;exitDy=0;" edge="1" parent="1">
          <mxGeometry width="50" height="50" relative="1" as="geometry">
            <mxPoint x="410" y="320" as="sourcePoint" />
            <mxPoint x="410" y="160" as="targetPoint" />
          </mxGeometry>
        </mxCell>
        <mxCell id="FSX5XVb1Eke8zx7frmXY-64" value="" style="endArrow=classic;html=1;rounded=0;entryX=0.007;entryY=0.987;entryDx=0;entryDy=0;entryPerimeter=0;" edge="1" parent="1" target="FSX5XVb1Eke8zx7frmXY-59">
          <mxGeometry width="50" height="50" relative="1" as="geometry">
            <mxPoint x="130" y="160" as="sourcePoint" />
            <mxPoint x="139.41" y="5" as="targetPoint" />
          </mxGeometry>
        </mxCell>
        <mxCell id="FSX5XVb1Eke8zx7frmXY-65" value="" style="endArrow=classic;html=1;rounded=0;entryX=0.007;entryY=0.987;entryDx=0;entryDy=0;entryPerimeter=0;" edge="1" parent="1">
          <mxGeometry width="50" height="50" relative="1" as="geometry">
            <mxPoint x="730" y="160" as="sourcePoint" />
            <mxPoint x="500" y="160" as="targetPoint" />
          </mxGeometry>
        </mxCell>
        <mxCell id="FSX5XVb1Eke8zx7frmXY-66" value="" style="shape=table;startSize=0;container=1;collapsible=0;childLayout=tableLayout;fillColor=#e6d0de;gradientColor=none;strokeColor=#996185;" vertex="1" parent="1">
          <mxGeometry x="80" y="640" width="320" height="255" as="geometry" />
        </mxCell>
        <mxCell id="FSX5XVb1Eke8zx7frmXY-67" value="" style="shape=tableRow;horizontal=0;startSize=0;swimlaneHead=0;swimlaneBody=0;strokeColor=inherit;top=0;left=0;bottom=0;right=0;collapsible=0;dropTarget=0;fillColor=none;points=[[0,0.5],[1,0.5]];portConstraint=eastwest;" vertex="1" parent="FSX5XVb1Eke8zx7frmXY-66">
          <mxGeometry width="320" height="84" as="geometry" />
        </mxCell>
        <mxCell id="FSX5XVb1Eke8zx7frmXY-68" value="&lt;span style=&quot;font-family: Verdana;&quot;&gt;AddressBook&lt;/span&gt;" style="shape=partialRectangle;html=1;whiteSpace=wrap;connectable=0;strokeColor=inherit;overflow=hidden;fillColor=none;top=0;left=0;bottom=0;right=0;pointerEvents=1;" vertex="1" parent="FSX5XVb1Eke8zx7frmXY-67">
          <mxGeometry width="320" height="84" as="geometry">
            <mxRectangle width="320" height="84" as="alternateBounds" />
          </mxGeometry>
        </mxCell>
        <mxCell id="FSX5XVb1Eke8zx7frmXY-69" value="" style="shape=tableRow;horizontal=0;startSize=0;swimlaneHead=0;swimlaneBody=0;strokeColor=inherit;top=0;left=0;bottom=0;right=0;collapsible=0;dropTarget=0;fillColor=none;points=[[0,0.5],[1,0.5]];portConstraint=eastwest;" vertex="1" parent="FSX5XVb1Eke8zx7frmXY-66">
          <mxGeometry y="84" width="320" height="87" as="geometry" />
        </mxCell>
        <mxCell id="FSX5XVb1Eke8zx7frmXY-70" value="&lt;div&gt;&lt;code&gt;&#39;name&#39;: Record&lt;/code&gt;&lt;/div&gt;&lt;div&gt;&lt;br&gt;&lt;/div&gt;" style="shape=partialRectangle;html=1;whiteSpace=wrap;connectable=0;strokeColor=inherit;overflow=hidden;fillColor=none;top=0;left=0;bottom=0;right=0;pointerEvents=1;" vertex="1" parent="FSX5XVb1Eke8zx7frmXY-69">
          <mxGeometry width="320" height="87" as="geometry">
            <mxRectangle width="320" height="87" as="alternateBounds" />
          </mxGeometry>
        </mxCell>
        <mxCell id="FSX5XVb1Eke8zx7frmXY-71" value="" style="shape=tableRow;horizontal=0;startSize=0;swimlaneHead=0;swimlaneBody=0;strokeColor=inherit;top=0;left=0;bottom=0;right=0;collapsible=0;dropTarget=0;fillColor=none;points=[[0,0.5],[1,0.5]];portConstraint=eastwest;" vertex="1" parent="FSX5XVb1Eke8zx7frmXY-66">
          <mxGeometry y="171" width="320" height="84" as="geometry" />
        </mxCell>
        <mxCell id="FSX5XVb1Eke8zx7frmXY-72" value="+ add_record&lt;div&gt;+&amp;nbsp;find&lt;/div&gt;&lt;div&gt;+&amp;nbsp;get_upcoming_birthdays&lt;/div&gt;" style="shape=partialRectangle;html=1;whiteSpace=wrap;connectable=0;strokeColor=inherit;overflow=hidden;fillColor=none;top=0;left=0;bottom=0;right=0;pointerEvents=1;" vertex="1" parent="FSX5XVb1Eke8zx7frmXY-71">
          <mxGeometry width="320" height="84" as="geometry">
            <mxRectangle width="320" height="84" as="alternateBounds" />
          </mxGeometry>
        </mxCell>
        <mxCell id="FSX5XVb1Eke8zx7frmXY-73" value="" style="shape=table;startSize=0;container=1;collapsible=0;childLayout=tableLayout;fillColor=#f8cecc;gradientColor=#ea6b66;strokeColor=#b85450;" vertex="1" parent="1">
          <mxGeometry x="500" y="610" width="310" height="305" as="geometry" />
        </mxCell>
        <mxCell id="FSX5XVb1Eke8zx7frmXY-74" value="" style="shape=tableRow;horizontal=0;startSize=0;swimlaneHead=0;swimlaneBody=0;strokeColor=inherit;top=0;left=0;bottom=0;right=0;collapsible=0;dropTarget=0;fillColor=none;points=[[0,0.5],[1,0.5]];portConstraint=eastwest;" vertex="1" parent="FSX5XVb1Eke8zx7frmXY-73">
          <mxGeometry width="310" height="101" as="geometry" />
        </mxCell>
        <mxCell id="FSX5XVb1Eke8zx7frmXY-75" value="&lt;span style=&quot;font-family: Verdana;&quot;&gt;Record&lt;/span&gt;" style="shape=partialRectangle;html=1;whiteSpace=wrap;connectable=0;strokeColor=inherit;overflow=hidden;fillColor=none;top=0;left=0;bottom=0;right=0;pointerEvents=1;" vertex="1" parent="FSX5XVb1Eke8zx7frmXY-74">
          <mxGeometry width="310" height="101" as="geometry">
            <mxRectangle width="310" height="101" as="alternateBounds" />
          </mxGeometry>
        </mxCell>
        <mxCell id="FSX5XVb1Eke8zx7frmXY-76" value="" style="shape=tableRow;horizontal=0;startSize=0;swimlaneHead=0;swimlaneBody=0;strokeColor=inherit;top=0;left=0;bottom=0;right=0;collapsible=0;dropTarget=0;fillColor=none;points=[[0,0.5],[1,0.5]];portConstraint=eastwest;" vertex="1" parent="FSX5XVb1Eke8zx7frmXY-73">
          <mxGeometry y="101" width="310" height="103" as="geometry" />
        </mxCell>
        <mxCell id="FSX5XVb1Eke8zx7frmXY-77" value="&lt;li&gt;&lt;code&gt;name&lt;/code&gt;&amp;nbsp;(екз.&amp;nbsp;&lt;code&gt;Name&lt;/code&gt;).&lt;/li&gt;&lt;li&gt;&lt;code&gt;phones&lt;/code&gt;&amp;nbsp;(сп. &amp;nbsp;&lt;code&gt;Phone&lt;/code&gt;).&lt;/li&gt;&lt;li&gt;&lt;code&gt;birthday&lt;/code&gt;&amp;nbsp;(&amp;nbsp;&lt;code&gt;Birthday&lt;/code&gt;&amp;nbsp;або&amp;nbsp;&lt;code&gt;None&lt;/code&gt;)&lt;/li&gt;" style="shape=partialRectangle;html=1;whiteSpace=wrap;connectable=0;strokeColor=inherit;overflow=hidden;fillColor=none;top=0;left=0;bottom=0;right=0;pointerEvents=1;" vertex="1" parent="FSX5XVb1Eke8zx7frmXY-76">
          <mxGeometry width="310" height="103" as="geometry">
            <mxRectangle width="310" height="103" as="alternateBounds" />
          </mxGeometry>
        </mxCell>
        <mxCell id="FSX5XVb1Eke8zx7frmXY-78" value="" style="shape=tableRow;horizontal=0;startSize=0;swimlaneHead=0;swimlaneBody=0;strokeColor=inherit;top=0;left=0;bottom=0;right=0;collapsible=0;dropTarget=0;fillColor=none;points=[[0,0.5],[1,0.5]];portConstraint=eastwest;" vertex="1" parent="FSX5XVb1Eke8zx7frmXY-73">
          <mxGeometry y="204" width="310" height="101" as="geometry" />
        </mxCell>
        <mxCell id="FSX5XVb1Eke8zx7frmXY-79" value="&lt;li&gt;&lt;code&gt;add_phone&lt;/code&gt;&amp;nbsp;&lt;/li&gt;&lt;li&gt;&lt;code&gt;remove_phone&lt;/code&gt;&amp;nbsp;&lt;/li&gt;&lt;li&gt;&lt;code&gt;edit_phone&lt;/code&gt;&lt;/li&gt;&lt;li&gt;&lt;code&gt;add_birthday&lt;/code&gt;&lt;/li&gt;&lt;li&gt;&lt;code&gt;__str__&lt;/code&gt;&lt;/li&gt;" style="shape=partialRectangle;html=1;whiteSpace=wrap;connectable=0;strokeColor=inherit;overflow=hidden;fillColor=none;top=0;left=0;bottom=0;right=0;pointerEvents=1;" vertex="1" parent="FSX5XVb1Eke8zx7frmXY-78">
          <mxGeometry width="310" height="101" as="geometry">
            <mxRectangle width="310" height="101" as="alternateBounds" />
          </mxGeometry>
        </mxCell>
        <mxCell id="FSX5XVb1Eke8zx7frmXY-80" value="" style="endArrow=classic;html=1;rounded=0;" edge="1" parent="1">
          <mxGeometry width="50" height="50" relative="1" as="geometry">
            <mxPoint x="500" y="780" as="sourcePoint" />
            <mxPoint x="400" y="780" as="targetPoint" />
          </mxGeometry>
        </mxCell>
        <mxCell id="FSX5XVb1Eke8zx7frmXY-83" value="" style="shape=flexArrow;endArrow=classic;html=1;rounded=0;fontSize=12;startSize=8;endSize=8;curved=1;exitX=1.006;exitY=1.028;exitDx=0;exitDy=0;exitPerimeter=0;entryX=0.007;entryY=0.027;entryDx=0;entryDy=0;entryPerimeter=0;" edge="1" parent="1" source="FSX5XVb1Eke8zx7frmXY-54" target="FSX5XVb1Eke8zx7frmXY-74">
          <mxGeometry width="50" height="50" relative="1" as="geometry">
            <mxPoint x="380" y="560" as="sourcePoint" />
            <mxPoint x="430" y="510" as="targetPoint" />
          </mxGeometry>
        </mxCell>
        <mxCell id="FSX5XVb1Eke8zx7frmXY-84" value="" style="shape=flexArrow;endArrow=classic;html=1;rounded=0;fontSize=12;startSize=8;endSize=8;curved=1;exitX=1.006;exitY=1.028;exitDx=0;exitDy=0;exitPerimeter=0;entryX=0.39;entryY=0.004;entryDx=0;entryDy=0;entryPerimeter=0;" edge="1" parent="1" target="FSX5XVb1Eke8zx7frmXY-74">
          <mxGeometry width="50" height="50" relative="1" as="geometry">
            <mxPoint x="414" y="481" as="sourcePoint" />
            <mxPoint x="675" y="610" as="targetPoint" />
          </mxGeometry>
        </mxCell>
        <mxCell id="FSX5XVb1Eke8zx7frmXY-85" value="" style="shape=flexArrow;endArrow=classic;html=1;rounded=0;fontSize=12;startSize=8;endSize=8;curved=1;exitX=1.006;exitY=1.028;exitDx=0;exitDy=0;exitPerimeter=0;entryX=0.493;entryY=-0.019;entryDx=0;entryDy=0;entryPerimeter=0;" edge="1" parent="1" target="FSX5XVb1Eke8zx7frmXY-74">
          <mxGeometry width="50" height="50" relative="1" as="geometry">
            <mxPoint x="650" y="481" as="sourcePoint" />
            <mxPoint x="911" y="610" as="targetPoint" />
          </mxGeometry>
        </mxCell>
      </root>
    </mxGraphModel>
  </diagram>
</mxfile>
